Coordinates
version=1
nRows=22
nColumns=18
inDegrees=yes

Units are S.I. units (second, meters, Newtons, ...)
If the header above contains a line with 'inDegrees', this indicates whether rotational values are in degrees (yes) or radians (no).

endheader
time	ground_thorax_rot_x	ground_thorax_rot_y	ground_thorax_rot_z	ground_thorax_tx	ground_thorax_ty	ground_thorax_tz	clav_prot	clav_elev	scapula_abduction	scapula_elevation	scapula_upward_rot	scapula_winging	plane_elv	shoulder_elv	axial_rot	elbow_flexion	pro_sup
      2.34000000	     -1.10430761	      2.25366473	     -7.97252542	     -0.00371138	      0.00593252	     -0.00834941	    -38.79137305	      5.49053777	    -22.39703376	     -3.71924183	     41.78008002	     -7.79776208	     12.10948607	     73.14146480	    -14.09442205	      0.00000000	     34.32000000
      2.35000000	     -1.05843859	      1.86622093	     -8.21817428	     -0.00342253	      0.00577317	     -0.00823779	    -38.75735418	      5.60688905	    -22.16939493	     -3.66919488	     42.05922885	     -7.86279132	     12.55015573	     73.69600698	    -14.12544174	      0.00000000	     34.32000000
      2.36000000	     -1.28915138	      1.79667846	     -8.13273862	     -0.00350881	      0.00588150	     -0.00847544	    -38.77703281	      5.68878215	    -22.00535766	     -3.64790132	     42.34811073	     -7.94337212	     12.74808104	     74.01306567	    -14.14245252	      0.00000000	     34.32000000
      2.37000000	     -1.56216503	      1.80082614	     -8.18540897	     -0.00358007	      0.00581149	     -0.00869915	    -38.81120027	      5.76425423	    -21.95366658	     -3.61812884	     42.51830014	     -8.00959080	     12.82821144	     74.20457638	    -14.13484246	      0.00000000	     34.32000000
      2.38000000	     -1.27313910	      1.33161817	     -8.12505929	     -0.00345164	      0.00579876	     -0.00825717	    -38.58766056	      6.14197487	    -21.66080583	     -3.35013463	     42.62233658	     -8.03111147	     13.34761726	     74.99566955	    -14.12210851	      0.00000000	     34.32000000
      2.39000000	     -1.23996588	      1.35013038	     -8.15959081	     -0.00343087	      0.00580110	     -0.00824793	    -38.60752944	      6.16637653	    -21.57232867	     -3.35386974	     42.78699592	     -8.07391384	     13.40967478	     75.45264424	    -14.06563399	      0.00000000	     34.32000000
      2.40000000	     -1.22733944	      1.41506492	     -8.19059723	     -0.00338460	      0.00575216	     -0.00824112	    -38.62899126	      6.19119592	    -21.46563888	     -3.36033830	     42.97819211	     -8.12168767	     13.41238461	     75.96346263	    -13.98528662	      0.00000000	     34.32000000
      2.41000000	     -1.21704691	      1.49410637	     -8.17051478	     -0.00348528	      0.00577137	     -0.00817944	    -38.66382165	      6.18806149	    -21.29325568	     -3.39804436	     43.26686510	     -8.18276257	     13.37315638	     76.50639305	    -13.90211366	      0.00000000	     34.32000000
      2.42000000	     -1.20419817	      1.47329330	     -8.17740717	     -0.00358392	      0.00575071	     -0.00805578	    -38.66370986	      6.21356256	    -21.06034076	     -3.41487590	     43.57597162	     -8.23807811	     13.31818513	     77.04372543	    -13.82516075	      0.00000000	     34.32000000
      2.43000000	     -1.45418523	      1.47528505	     -8.20099579	     -0.00366484	      0.00559841	     -0.00810812	    -38.70430179	      6.26789850	    -21.01570337	     -3.39853109	     43.73952697	     -8.29821536	     13.37278556	     77.21848197	    -13.81522801	      0.00000000	     34.32000000
      2.44000000	     -1.30644250	      1.18017672	     -8.22589340	     -0.00357053	      0.00570559	     -0.00807394	    -38.56928231	      6.41351615	    -20.58868427	     -3.32409974	     44.08111529	     -8.32795721	     13.53747139	     77.82070227	    -13.73950748	      0.00000000	     34.32000000
      2.45000000	     -1.52441482	      1.21730828	     -8.27795211	     -0.00358328	      0.00563323	     -0.00836456	    -38.57407429	      6.47261349	    -20.52079750	     -3.29688209	     44.20460163	     -8.36567862	     13.61333225	     77.95179144	    -13.73130417	      0.00000000	     34.32000000
      2.46000000	     -1.50679415	      0.51384706	     -8.19801780	     -0.00345216	      0.00563955	     -0.00813348	    -37.96233219	      6.61722431	    -19.49466861	     -3.16303862	     44.34740750	     -8.14282061	     13.43686142	     78.55485044	    -12.77067542	      0.00000000	     34.32000000
      2.47000000	     -1.50226079	      0.52444121	     -8.18803410	     -0.00360338	      0.00567595	     -0.00795875	    -37.99322070	      6.62759460	    -19.35803524	     -3.18376190	     44.58697399	     -8.19563459	     13.51311484	     78.94909738	    -12.73063937	      0.00000000	     34.32000000
      2.48000000	     -1.47830094	      0.42686732	     -8.21057435	     -0.00365914	      0.00565974	     -0.00779808	    -38.00621508	      6.66665213	    -19.16945723	     -3.18732469	     44.86942291	     -8.25406355	     13.63008218	     79.42178038	    -12.71147257	      0.00000000	     34.32000000
      2.49000000	     -1.72509491	      0.43933395	     -8.23427638	     -0.00371671	      0.00543811	     -0.00806462	    -38.04226446	      6.71644589	    -19.11534054	     -3.17268794	     45.03313409	     -8.30829540	     13.71297170	     79.59302208	    -12.70642830	      0.00000000	     34.32000000
      2.50000000	     -1.61208155	      0.11864838	     -8.29364505	     -0.00350722	      0.00554888	     -0.00797840	    -38.03064535	      6.67073166	    -18.85446062	     -3.23237949	     45.31769907	     -8.33123077	     14.24464115	     80.14263731	    -12.73821624	      0.00000000	     34.32000000
      2.51000000	     -1.71111091	      0.05113820	     -8.30207016	     -0.00347325	      0.00552532	     -0.00814720	    -38.02587826	      6.70314833	    -18.70298841	     -3.22933012	     45.51399637	     -8.36597298	     14.47201502	     80.46095846	    -12.73959756	      0.00000000	     34.32000000
      2.52000000	     -1.97479830	      0.07432995	     -8.33926443	     -0.00347128	      0.00538034	     -0.00829930	    -38.06189501	      6.76632392	    -18.64968555	     -3.20531120	     45.68240257	     -8.42382500	     14.54928277	     80.63516491	    -12.73242304	      0.00000000	     34.32000000
      2.53000000	     -1.78621176	     -0.11391989	     -8.31460633	     -0.00341866	      0.00547933	     -0.00812128	    -38.08916903	      6.98528410	    -18.30275446	     -3.11392725	     46.27406916	     -8.57861736	     14.76437297	     81.14469057	    -12.81699853	      0.00000000	     34.32000000
      2.54000000	     -1.94880147	     -0.08861788	     -8.24743419	     -0.00353539	      0.00552978	     -0.00822720	    -38.16676711	      7.00355429	    -18.14779093	     -3.14137897	     46.63204081	     -8.66780844	     14.89626388	     81.43792763	    -12.83094387	      0.00000000	     34.32000000
      2.55000000	     -1.84435216	     -0.40899424	     -8.28783533	     -0.00348830	      0.00543228	     -0.00796356	    -38.12916365	      7.19336648	    -17.69183758	     -3.06114812	     47.21513074	     -8.77882683	     15.03277303	     81.71612515	    -12.95123636	      0.00000000	     34.32000000
